<?xml version="1.0" encoding="UTF-8"?>
<!-- Created with Inkscape (http://www.inkscape.org/) -->
<svg width="1.7741mm" height="2.183mm" version="1.1" viewBox="0 0 1.7741 2.183" xmlns="http://www.w3.org/2000/svg">
 <g transform="translate(-85.14 -149.31)">
  <rect x="85.167" y="149.34" width="1.7212" height="2.1301" ry="1.7764e-15" fill="none"/>
  <path d="m86.027 149.73a0.67044 0.67044 0 0 0-0.67024 0.67024 0.67044 0.67044 0 0 0 0.67024 0.67024 0.67044 0.67044 0 0 0 0.67076-0.67024 0.67044 0.67044 0 0 0-0.67076-0.67024zm0 0.28732a0.38311 0.38311 0 0 1 0.38344 0.38292 0.38311 0.38311 0 0 1-0.38344 0.38292 0.38311 0.38311 0 0 1-0.38292-0.38292 0.38311 0.38311 0 0 1 0.38292-0.38292z" fill="#00f"/>
  <path d="m86.027 150.07a0.33522 0.33522 0 0 0-0.33538 0.33486 0.33522 0.33522 0 0 0 0.33538 0.33538 0.33522 0.33522 0 0 0 0.33538-0.33538 0.33522 0.33522 0 0 0-0.33538-0.33486zm0 0.28474a0.05 0.05 0 0 1 0.05013 0.0501 0.05 0.05 0 0 1-0.05013 0.0501 0.05 0.05 0 0 1-0.05013-0.0501 0.05 0.05 0 0 1 0.05013-0.0501z" fill="#f00"/>
 </g>
</svg>
