<?xml version="1.0" encoding="UTF-8"?>
<!-- Created with Inkscape (http://www.inkscape.org/) -->
<svg width="1.7741mm" height="2.183mm" version="1.1" viewBox="0 0 1.7741 2.183" xmlns="http://www.w3.org/2000/svg">
 <g>
  <rect x=".026458" y=".026458" width="1.7212" height="2.1301" ry="1.7764e-15" fill="none"/>
  <path d="m0.50447 0.3451a0.28799 0.28799 0 0 0-0.28791 0.28791 0.28799 0.28799 0 0 0 0.28791 0.28791 0.28799 0.28799 0 0 0 0.28813-0.28791 0.28799 0.28799 0 0 0-0.28813-0.28791zm0 0.12342a0.16457 0.16457 0 0 1 0.16471 0.16449 0.16457 0.16457 0 0 1-0.16471 0.16449 0.16457 0.16457 0 0 1-0.16449-0.16449 0.16457 0.16457 0 0 1 0.16449-0.16449z" fill="#00f"/>
  <path d="m0.50459 0.48905a0.144 0.144 0 0 0-0.14407 0.14384 0.144 0.144 0 0 0 0.14407 0.14407 0.144 0.144 0 0 0 0.14407-0.14407 0.144 0.144 0 0 0-0.14407-0.14384zm0 0.12231a0.021478 0.021478 0 0 1 0.021534 0.021521 0.021478 0.021478 0 0 1-0.021534 0.021521 0.021478 0.021478 0 0 1-0.021534-0.021521 0.021478 0.021478 0 0 1 0.021534-0.021521z" fill="#00f"/>
  <path d="m0.88248 0.87297a0.28799 0.28799 0 0 0-0.28791 0.28791 0.28799 0.28799 0 0 0 0.28791 0.28791 0.28799 0.28799 0 0 0 0.28813-0.28791 0.28799 0.28799 0 0 0-0.28813-0.28791zm0 0.12342a0.16457 0.16457 0 0 1 0.16471 0.16449 0.16457 0.16457 0 0 1-0.16471 0.16449 0.16457 0.16457 0 0 1-0.16449-0.16449 0.16457 0.16457 0 0 1 0.16449-0.16449z" fill="#f00"/>
  <path d="m0.88259 1.0169a0.144 0.144 0 0 0-0.14407 0.14384 0.144 0.144 0 0 0 0.14407 0.14407 0.144 0.144 0 0 0 0.14407-0.14407 0.144 0.144 0 0 0-0.14407-0.14384zm0 0.12231a0.021478 0.021478 0 0 1 0.021534 0.021521 0.021478 0.021478 0 0 1-0.021534 0.021521 0.021478 0.021478 0 0 1-0.021534-0.021521 0.021478 0.021478 0 0 1 0.021534-0.021521z" fill="#f00"/>
  <path d="m1.2605 1.4008a0.28799 0.28799 0 0 0-0.28791 0.28791 0.28799 0.28799 0 0 0 0.28791 0.28791 0.28799 0.28799 0 0 0 0.28813-0.28791 0.28799 0.28799 0 0 0-0.28813-0.28791zm0 0.12342a0.16457 0.16457 0 0 1 0.16471 0.16449 0.16457 0.16457 0 0 1-0.16471 0.16449 0.16457 0.16457 0 0 1-0.16449-0.16449 0.16457 0.16457 0 0 1 0.16449-0.16449z" fill="#00f"/>
  <path d="m1.2606 1.5448a0.144 0.144 0 0 0-0.14407 0.14384 0.144 0.144 0 0 0 0.14407 0.14407 0.144 0.144 0 0 0 0.14407-0.14407 0.144 0.144 0 0 0-0.14407-0.14384zm0 0.12231a0.021478 0.021478 0 0 1 0.021534 0.021521 0.021478 0.021478 0 0 1-0.021534 0.021521 0.021478 0.021478 0 0 1-0.021534-0.021521 0.021478 0.021478 0 0 1 0.021534-0.021521z" fill="#00f"/>
 </g>
</svg>
