<?xml version="1.0" encoding="UTF-8"?>
<!-- Created with Inkscape (http://www.inkscape.org/) -->
<svg width="1.8212mm" height="2.2301mm" version="1.1" viewBox="0 0 1.8212 2.2301" xmlns="http://www.w3.org/2000/svg">
 <g>
  <rect x=".05" y=".05" width="1.7212" height="2.1301" ry="1.7764e-15" fill="none"/>
  <g transform="translate(-.010231 .02706)">
   <g transform="translate(.010231)">
    <g transform="translate(-.030867)" fill="none" stroke="#008000" stroke-width=".1">
     <path d="m0.83021 0.97637"/>
     <path d="m1.0465 0.97637"/>
     <path d="m1.0155 0.28063v0.69574"/>
     <path d="m0.86741 0.97637v-0.69574"/>
     <path d="m0.76303 0.28063h0.35688"/>
     <path d="m1.1199 0.97637h-0.35688"/>
     <path d="m1.1199 0.6285h-0.35688"/>
    </g>
    <g transform="translate(-.030867 .91898)" fill="none" stroke="#008000" stroke-width=".1">
     <path d="m0.83021 0.97637"/>
     <path d="m1.0465 0.97637"/>
     <path d="m1.0155 0.28063v0.69574"/>
     <path d="m0.86741 0.97637v-0.69574"/>
     <path d="m0.76303 0.28063h0.35688"/>
     <path d="m1.1199 0.97637h-0.35688"/>
     <path d="m1.1199 0.6285h-0.35688"/>
    </g>
   </g>
   <g transform="translate(-.43849)">
    <g transform="translate(-.030867)" fill="none" stroke="#008000" stroke-width=".1">
     <path d="m0.83021 0.97637"/>
     <path d="m1.0465 0.97637"/>
     <path d="m1.0155 0.28063v0.69574"/>
     <path d="m0.86741 0.97637v-0.69574"/>
     <path d="m0.76303 0.28063h0.35688"/>
     <path d="m1.1199 0.97637h-0.35688"/>
     <path d="m1.1199 0.6285h-0.35688"/>
    </g>
   </g>
   <g transform="translate(-.46936 .91898)" fill="none" stroke="#008000" stroke-width=".1">
    <path d="m0.83021 0.97637"/>
    <path d="m1.0465 0.97637"/>
    <path d="m1.0155 0.28063v0.69574"/>
    <path d="m0.86741 0.97637v-0.69574"/>
    <path d="m0.76303 0.28063h0.35688"/>
    <path d="m1.1199 0.97637h-0.35688"/>
    <path d="m1.1199 0.6285h-0.35688"/>
   </g>
   <g transform="translate(.89744)">
    <g transform="translate(-.43849)">
     <g transform="translate(-.030867)" fill="none" stroke="#008000" stroke-width=".1">
      <path d="m0.83021 0.97637"/>
      <path d="m1.0465 0.97637"/>
      <path d="m1.0155 0.28063v0.69574"/>
      <path d="m0.86741 0.97637v-0.69574"/>
      <path d="m0.76303 0.28063h0.35688"/>
      <path d="m1.1199 0.97637h-0.35688"/>
      <path d="m1.1199 0.6285h-0.35688"/>
     </g>
    </g>
    <g transform="translate(-.46936 .91898)" fill="none" stroke="#008000" stroke-width=".1">
     <path d="m0.83021 0.97637"/>
     <path d="m1.0465 0.97637"/>
     <path d="m1.0155 0.28063v0.69574"/>
     <path d="m0.86741 0.97637v-0.69574"/>
     <path d="m0.76303 0.28063h0.35688"/>
     <path d="m1.1199 0.97637h-0.35688"/>
     <path d="m1.1199 0.6285h-0.35688"/>
    </g>
   </g>
  </g>
 </g>
</svg>
