<?xml version="1.0" encoding="UTF-8"?>
<!-- Created with Inkscape (http://www.inkscape.org/) -->
<svg width="1.7741mm" height="2.183mm" version="1.1" viewBox="0 0 1.7741 2.183" xmlns="http://www.w3.org/2000/svg">
 <g transform="translate(-.023474 .024335)">
  <rect x=".049932" y=".0021235" width="1.7212" height="2.1301" ry="1.7764e-15" fill="none"/>
  <g fill="#00f">
   <g transform="matrix(.58808 0 0 .58808 -.061822 -.38631)">
    <path d="m0.88694 1.1593a0.33049 0.33049 0 0 0-0.33039 0.33039 0.33049 0.33049 0 0 0 0.33039 0.33039 0.33049 0.33049 0 0 0 0.33065-0.33039 0.33049 0.33049 0 0 0-0.33065-0.33039zm0 0.14163a0.18885 0.18885 0 0 1 0.18901 0.18876 0.18885 0.18885 0 0 1-0.18901 0.18876 0.18885 0.18885 0 0 1-0.18876-0.18876 0.18885 0.18885 0 0 1 0.18876-0.18876z"/>
    <path d="m0.88707 1.3245a0.16524 0.16524 0 0 0-0.16532 0.16507 0.16524 0.16524 0 0 0 0.16532 0.16532 0.16524 0.16524 0 0 0 0.16532-0.16532 0.16524 0.16524 0 0 0-0.16532-0.16507zm0 0.14036a0.024647 0.024647 0 0 1 0.024711 0.024696 0.024647 0.024647 0 0 1-0.024711 0.024697 0.024647 0.024647 0 0 1-0.024711-0.024697 0.024647 0.024647 0 0 1 0.024711-0.024696z"/>
   </g>
   <g transform="matrix(.58808 0 0 .58808 .38887 -.38631)">
    <path d="m0.88694 1.1593a0.33049 0.33049 0 0 0-0.33039 0.33039 0.33049 0.33049 0 0 0 0.33039 0.33039 0.33049 0.33049 0 0 0 0.33065-0.33039 0.33049 0.33049 0 0 0-0.33065-0.33039zm0 0.14163a0.18885 0.18885 0 0 1 0.18901 0.18876 0.18885 0.18885 0 0 1-0.18901 0.18876 0.18885 0.18885 0 0 1-0.18876-0.18876 0.18885 0.18885 0 0 1 0.18876-0.18876z"/>
    <path d="m0.88707 1.3245a0.16524 0.16524 0 0 0-0.16532 0.16507 0.16524 0.16524 0 0 0 0.16532 0.16532 0.16524 0.16524 0 0 0 0.16532-0.16532 0.16524 0.16524 0 0 0-0.16532-0.16507zm0 0.14036a0.024647 0.024647 0 0 1 0.024711 0.024696 0.024647 0.024647 0 0 1-0.024711 0.024697 0.024647 0.024647 0 0 1-0.024711-0.024697 0.024647 0.024647 0 0 1 0.024711-0.024696z"/>
   </g>
   <g transform="matrix(.58808 0 0 .58808 .83956 -.38631)">
    <path d="m0.88694 1.1593a0.33049 0.33049 0 0 0-0.33039 0.33039 0.33049 0.33049 0 0 0 0.33039 0.33039 0.33049 0.33049 0 0 0 0.33065-0.33039 0.33049 0.33049 0 0 0-0.33065-0.33039zm0 0.14163a0.18885 0.18885 0 0 1 0.18901 0.18876 0.18885 0.18885 0 0 1-0.18901 0.18876 0.18885 0.18885 0 0 1-0.18876-0.18876 0.18885 0.18885 0 0 1 0.18876-0.18876z"/>
    <path d="m0.88707 1.3245a0.16524 0.16524 0 0 0-0.16532 0.16507 0.16524 0.16524 0 0 0 0.16532 0.16532 0.16524 0.16524 0 0 0 0.16532-0.16532 0.16524 0.16524 0 0 0-0.16532-0.16507zm0 0.14036a0.024647 0.024647 0 0 1 0.024711 0.024696 0.024647 0.024647 0 0 1-0.024711 0.024697 0.024647 0.024647 0 0 1-0.024711-0.024697 0.024647 0.024647 0 0 1 0.024711-0.024696z"/>
   </g>
  </g>
  <g transform="translate(0 1.1549)" fill="#00f">
   <g transform="matrix(.58808 0 0 .58808 -.061822 -.38631)">
    <path d="m0.88694 1.1593a0.33049 0.33049 0 0 0-0.33039 0.33039 0.33049 0.33049 0 0 0 0.33039 0.33039 0.33049 0.33049 0 0 0 0.33065-0.33039 0.33049 0.33049 0 0 0-0.33065-0.33039zm0 0.14163a0.18885 0.18885 0 0 1 0.18901 0.18876 0.18885 0.18885 0 0 1-0.18901 0.18876 0.18885 0.18885 0 0 1-0.18876-0.18876 0.18885 0.18885 0 0 1 0.18876-0.18876z"/>
    <path d="m0.88707 1.3245a0.16524 0.16524 0 0 0-0.16532 0.16507 0.16524 0.16524 0 0 0 0.16532 0.16532 0.16524 0.16524 0 0 0 0.16532-0.16532 0.16524 0.16524 0 0 0-0.16532-0.16507zm0 0.14036a0.024647 0.024647 0 0 1 0.024711 0.024696 0.024647 0.024647 0 0 1-0.024711 0.024697 0.024647 0.024647 0 0 1-0.024711-0.024697 0.024647 0.024647 0 0 1 0.024711-0.024696z"/>
   </g>
   <g transform="matrix(.58808 0 0 .58808 .38887 -.38631)">
    <path d="m0.88694 1.1593a0.33049 0.33049 0 0 0-0.33039 0.33039 0.33049 0.33049 0 0 0 0.33039 0.33039 0.33049 0.33049 0 0 0 0.33065-0.33039 0.33049 0.33049 0 0 0-0.33065-0.33039zm0 0.14163a0.18885 0.18885 0 0 1 0.18901 0.18876 0.18885 0.18885 0 0 1-0.18901 0.18876 0.18885 0.18885 0 0 1-0.18876-0.18876 0.18885 0.18885 0 0 1 0.18876-0.18876z"/>
    <path d="m0.88707 1.3245a0.16524 0.16524 0 0 0-0.16532 0.16507 0.16524 0.16524 0 0 0 0.16532 0.16532 0.16524 0.16524 0 0 0 0.16532-0.16532 0.16524 0.16524 0 0 0-0.16532-0.16507zm0 0.14036a0.024647 0.024647 0 0 1 0.024711 0.024696 0.024647 0.024647 0 0 1-0.024711 0.024697 0.024647 0.024647 0 0 1-0.024711-0.024697 0.024647 0.024647 0 0 1 0.024711-0.024696z"/>
   </g>
   <g transform="matrix(.58808 0 0 .58808 .83956 -.38631)">
    <path d="m0.88694 1.1593a0.33049 0.33049 0 0 0-0.33039 0.33039 0.33049 0.33049 0 0 0 0.33039 0.33039 0.33049 0.33049 0 0 0 0.33065-0.33039 0.33049 0.33049 0 0 0-0.33065-0.33039zm0 0.14163a0.18885 0.18885 0 0 1 0.18901 0.18876 0.18885 0.18885 0 0 1-0.18901 0.18876 0.18885 0.18885 0 0 1-0.18876-0.18876 0.18885 0.18885 0 0 1 0.18876-0.18876z"/>
    <path d="m0.88707 1.3245a0.16524 0.16524 0 0 0-0.16532 0.16507 0.16524 0.16524 0 0 0 0.16532 0.16532 0.16524 0.16524 0 0 0 0.16532-0.16532 0.16524 0.16524 0 0 0-0.16532-0.16507zm0 0.14036a0.024647 0.024647 0 0 1 0.024711 0.024696 0.024647 0.024647 0 0 1-0.024711 0.024697 0.024647 0.024647 0 0 1-0.024711-0.024697 0.024647 0.024647 0 0 1 0.024711-0.024696z"/>
   </g>
  </g>
  <g transform="translate(0 .57745)" fill="#f00">
   <g transform="matrix(.58808 0 0 .58808 -.061822 -.38631)">
    <path d="m0.88694 1.1593a0.33049 0.33049 0 0 0-0.33039 0.33039 0.33049 0.33049 0 0 0 0.33039 0.33039 0.33049 0.33049 0 0 0 0.33065-0.33039 0.33049 0.33049 0 0 0-0.33065-0.33039zm0 0.14163a0.18885 0.18885 0 0 1 0.18901 0.18876 0.18885 0.18885 0 0 1-0.18901 0.18876 0.18885 0.18885 0 0 1-0.18876-0.18876 0.18885 0.18885 0 0 1 0.18876-0.18876z"/>
    <path d="m0.88707 1.3245a0.16524 0.16524 0 0 0-0.16532 0.16507 0.16524 0.16524 0 0 0 0.16532 0.16532 0.16524 0.16524 0 0 0 0.16532-0.16532 0.16524 0.16524 0 0 0-0.16532-0.16507zm0 0.14036a0.024647 0.024647 0 0 1 0.024711 0.024696 0.024647 0.024647 0 0 1-0.024711 0.024697 0.024647 0.024647 0 0 1-0.024711-0.024697 0.024647 0.024647 0 0 1 0.024711-0.024696z"/>
   </g>
   <g transform="matrix(.58808 0 0 .58808 .38887 -.38631)">
    <path d="m0.88694 1.1593a0.33049 0.33049 0 0 0-0.33039 0.33039 0.33049 0.33049 0 0 0 0.33039 0.33039 0.33049 0.33049 0 0 0 0.33065-0.33039 0.33049 0.33049 0 0 0-0.33065-0.33039zm0 0.14163a0.18885 0.18885 0 0 1 0.18901 0.18876 0.18885 0.18885 0 0 1-0.18901 0.18876 0.18885 0.18885 0 0 1-0.18876-0.18876 0.18885 0.18885 0 0 1 0.18876-0.18876z"/>
    <path d="m0.88707 1.3245a0.16524 0.16524 0 0 0-0.16532 0.16507 0.16524 0.16524 0 0 0 0.16532 0.16532 0.16524 0.16524 0 0 0 0.16532-0.16532 0.16524 0.16524 0 0 0-0.16532-0.16507zm0 0.14036a0.024647 0.024647 0 0 1 0.024711 0.024696 0.024647 0.024647 0 0 1-0.024711 0.024697 0.024647 0.024647 0 0 1-0.024711-0.024697 0.024647 0.024647 0 0 1 0.024711-0.024696z"/>
   </g>
   <g transform="matrix(.58808 0 0 .58808 .83956 -.38631)">
    <path d="m0.88694 1.1593a0.33049 0.33049 0 0 0-0.33039 0.33039 0.33049 0.33049 0 0 0 0.33039 0.33039 0.33049 0.33049 0 0 0 0.33065-0.33039 0.33049 0.33049 0 0 0-0.33065-0.33039zm0 0.14163a0.18885 0.18885 0 0 1 0.18901 0.18876 0.18885 0.18885 0 0 1-0.18901 0.18876 0.18885 0.18885 0 0 1-0.18876-0.18876 0.18885 0.18885 0 0 1 0.18876-0.18876z"/>
    <path d="m0.88707 1.3245a0.16524 0.16524 0 0 0-0.16532 0.16507 0.16524 0.16524 0 0 0 0.16532 0.16532 0.16524 0.16524 0 0 0 0.16532-0.16532 0.16524 0.16524 0 0 0-0.16532-0.16507zm0 0.14036a0.024647 0.024647 0 0 1 0.024711 0.024696 0.024647 0.024647 0 0 1-0.024711 0.024697 0.024647 0.024647 0 0 1-0.024711-0.024697 0.024647 0.024647 0 0 1 0.024711-0.024696z"/>
   </g>
  </g>
 </g>
</svg>
