<?xml version="1.0" encoding="UTF-8"?>
<!-- Created with Inkscape (http://www.inkscape.org/) -->
<svg width="1.8212mm" height="2.2301mm" version="1.1" viewBox="0 0 1.8212 2.2301" xmlns="http://www.w3.org/2000/svg">
 <g>
  <rect x=".05" y=".05" width="1.7212" height="2.1301" ry="1.7764e-15" fill="none"/>
  <path d="m0.97052 0.28063c0.21901-0.13738 0.36667 0.09981 0.52619 0.27479 0.0079894 0.23002 0.045356 0.46843-0.26309 0.60804l-0.52619-0.0058465c-0.23668-0.088994-0.27361-0.3278-0.26309-0.60219 0.19021-0.27535 0.32525-0.36226 0.52619-0.27479z" fill="#008000"/>
  <g stroke-width=".1">
   <path d="m0.71912 1.6909v0.25017l-0.15201 0.071392" fill="none" stroke="#f00"/>
   <path d="m0.74251 1.1998-0.45018-0.087698" fill="none" stroke="#f00"/>
   <path d="m1.5398 1.6429h-1.1342l0.56711-0.45603z" fill="#fff" stroke="#000"/>
   <path d="m0.74251 1.1998-0.45018 0.076005" fill="none" stroke="#f00"/>
   <path d="m1.0816 1.6909v0.25017l-0.15201 0.071392" fill="none" stroke="#f00"/>
   <path d="m0.72497 1.6558h0.36248l-0.34494-0.45603z" fill="#fff" stroke="#000"/>
  </g>
 </g>
</svg>
