<?xml version="1.0" encoding="UTF-8"?>
<!-- Created with Inkscape (http://www.inkscape.org/) -->
<svg width="1.7741mm" height="2.183mm" version="1.1" viewBox="0 0 1.7741 2.183" xmlns="http://www.w3.org/2000/svg">
 <rect x=".026458" y=".026458" width="1.7212" height="2.1301" ry="1.7764e-15" fill="none"/>
 <g fill="#00f">
  <path d="m1.1885 0.40008a0.23895 0.23895 0 0 0-0.23888 0.23888 0.23895 0.23895 0 0 0 0.23888 0.23888 0.23895 0.23895 0 0 0 0.23907-0.23888 0.23895 0.23895 0 0 0-0.23907-0.23888zm0 0.1024a0.13654 0.13654 0 0 1 0.13666 0.13648 0.13654 0.13654 0 0 1-0.13666 0.13648 0.13654 0.13654 0 0 1-0.13648-0.13648 0.13654 0.13654 0 0 1 0.13648-0.13648z"/>
  <path d="m1.1886 0.51952a0.11947 0.11947 0 0 0-0.11953 0.11935 0.11947 0.11947 0 0 0 0.11953 0.11953 0.11947 0.11947 0 0 0 0.11953-0.11953 0.11947 0.11947 0 0 0-0.11953-0.11935zm0 0.10148a0.01782 0.01782 0 0 1 0.017867 0.017856 0.01782 0.01782 0 0 1-0.017867 0.017856 0.01782 0.01782 0 0 1-0.017867-0.017856 0.01782 0.01782 0 0 1 0.017867-0.017856z"/>
  <path d="m1.1885 1.3052a0.23895 0.23895 0 0 0-0.23888 0.23888 0.23895 0.23895 0 0 0 0.23888 0.23888 0.23895 0.23895 0 0 0 0.23907-0.23888 0.23895 0.23895 0 0 0-0.23907-0.23888zm0 0.1024a0.13654 0.13654 0 0 1 0.13666 0.13648 0.13654 0.13654 0 0 1-0.13666 0.13648 0.13654 0.13654 0 0 1-0.13648-0.13648 0.13654 0.13654 0 0 1 0.13648-0.13648z"/>
  <path d="m1.1886 1.4246a0.11947 0.11947 0 0 0-0.11953 0.11935 0.11947 0.11947 0 0 0 0.11953 0.11953 0.11947 0.11947 0 0 0 0.11953-0.11953 0.11947 0.11947 0 0 0-0.11953-0.11935zm0 0.10148a0.01782 0.01782 0 0 1 0.017867 0.017856 0.01782 0.01782 0 0 1-0.017867 0.017856 0.01782 0.01782 0 0 1-0.017867-0.017856 0.01782 0.01782 0 0 1 0.017867-0.017856z"/>
  <path d="m0.58546 1.3052a0.23895 0.23895 0 0 0-0.23888 0.23888 0.23895 0.23895 0 0 0 0.23888 0.23888 0.23895 0.23895 0 0 0 0.23907-0.23888 0.23895 0.23895 0 0 0-0.23907-0.23888zm0 0.1024a0.13654 0.13654 0 0 1 0.13666 0.13648 0.13654 0.13654 0 0 1-0.13666 0.13648 0.13654 0.13654 0 0 1-0.13648-0.13648 0.13654 0.13654 0 0 1 0.13648-0.13648z"/>
  <path d="m0.58555 1.4246a0.11947 0.11947 0 0 0-0.11953 0.11935 0.11947 0.11947 0 0 0 0.11953 0.11953 0.11947 0.11947 0 0 0 0.11953-0.11953 0.11947 0.11947 0 0 0-0.11953-0.11935zm0 0.10148a0.01782 0.01782 0 0 1 0.017867 0.017856 0.01782 0.01782 0 0 1-0.017867 0.017856 0.01782 0.01782 0 0 1-0.017867-0.017856 0.01782 0.01782 0 0 1 0.017867-0.017856z"/>
  <path d="m0.58546 0.40008a0.23895 0.23895 0 0 0-0.23888 0.23888 0.23895 0.23895 0 0 0 0.23888 0.23888 0.23895 0.23895 0 0 0 0.23907-0.23888 0.23895 0.23895 0 0 0-0.23907-0.23888zm0 0.1024a0.13654 0.13654 0 0 1 0.13666 0.13648 0.13654 0.13654 0 0 1-0.13666 0.13648 0.13654 0.13654 0 0 1-0.13648-0.13648 0.13654 0.13654 0 0 1 0.13648-0.13648z"/>
  <path d="m0.58555 0.51952a0.11947 0.11947 0 0 0-0.11953 0.11935 0.11947 0.11947 0 0 0 0.11953 0.11953 0.11947 0.11947 0 0 0 0.11953-0.11953 0.11947 0.11947 0 0 0-0.11953-0.11935zm0 0.10148a0.01782 0.01782 0 0 1 0.017867 0.017856 0.01782 0.01782 0 0 1-0.017867 0.017856 0.01782 0.01782 0 0 1-0.017867-0.017856 0.01782 0.01782 0 0 1 0.017867-0.017856z"/>
 </g>
</svg>
