<?xml version="1.0" encoding="UTF-8"?>
<!-- Created with Inkscape (http://www.inkscape.org/) -->
<svg width="1.7741mm" height="2.183mm" version="1.1" viewBox="0 0 1.7741 2.183" xmlns="http://www.w3.org/2000/svg">
 <rect x=".026458" y=".026458" width="1.7212" height="2.1301" ry="1.7764e-15" fill="none"/>
 <path d="m0.88697 0.84794a0.24365 0.24365 0 0 0-0.24358 0.24358 0.24365 0.24365 0 0 0 0.24358 0.24358 0.24365 0.24365 0 0 0 0.24377-0.24358 0.24365 0.24365 0 0 0-0.24377-0.24358zm0 0.10442a0.13923 0.13923 0 0 1 0.13935 0.13916 0.13923 0.13923 0 0 1-0.13935 0.13916 0.13923 0.13923 0 0 1-0.13916-0.13916 0.13923 0.13923 0 0 1 0.13916-0.13916z" fill="#f00"/>
 <path d="m0.88707 0.96973a0.12182 0.12182 0 0 0-0.12188 0.12169 0.12182 0.12182 0 0 0 0.12188 0.12188 0.12182 0.12182 0 0 0 0.12188-0.12188 0.12182 0.12182 0 0 0-0.12188-0.12169zm0 0.10348a0.018171 0.018171 0 0 1 0.018218 0.018207 0.018171 0.018171 0 0 1-0.018218 0.018207 0.018171 0.018171 0 0 1-0.018218-0.018207 0.018171 0.018171 0 0 1 0.018218-0.018207z" fill="#f00"/>
 <g fill="#00f">
  <path d="m1.1851 0.39021a0.24365 0.24365 0 0 0-0.24358 0.24358 0.24365 0.24365 0 0 0 0.24358 0.24358 0.24365 0.24365 0 0 0 0.24377-0.24358 0.24365 0.24365 0 0 0-0.24377-0.24358zm0 0.10442a0.13923 0.13923 0 0 1 0.13935 0.13916 0.13923 0.13923 0 0 1-0.13935 0.13916 0.13923 0.13923 0 0 1-0.13916-0.13916 0.13923 0.13923 0 0 1 0.13916-0.13916z"/>
  <path d="m1.1852 0.512a0.12182 0.12182 0 0 0-0.12188 0.12169 0.12182 0.12182 0 0 0 0.12188 0.12188 0.12182 0.12182 0 0 0 0.12188-0.12188 0.12182 0.12182 0 0 0-0.12188-0.12169zm0 0.10348a0.018171 0.018171 0 0 1 0.018218 0.018207 0.018171 0.018171 0 0 1-0.018218 0.018207 0.018171 0.018171 0 0 1-0.018218-0.018207 0.018171 0.018171 0 0 1 0.018218-0.018207z"/>
  <path d="m0.58886 0.39021a0.24365 0.24365 0 0 0-0.24358 0.24358 0.24365 0.24365 0 0 0 0.24358 0.24358 0.24365 0.24365 0 0 0 0.24377-0.24358 0.24365 0.24365 0 0 0-0.24377-0.24358zm0 0.10442a0.13923 0.13923 0 0 1 0.13935 0.13916 0.13923 0.13923 0 0 1-0.13935 0.13916 0.13923 0.13923 0 0 1-0.13916-0.13916 0.13923 0.13923 0 0 1 0.13916-0.13916z"/>
  <path d="m0.58895 0.512a0.12182 0.12182 0 0 0-0.12188 0.12169 0.12182 0.12182 0 0 0 0.12188 0.12188 0.12182 0.12182 0 0 0 0.12188-0.12188 0.12182 0.12182 0 0 0-0.12188-0.12169zm0 0.10348a0.018171 0.018171 0 0 1 0.018218 0.018207 0.018171 0.018171 0 0 1-0.018218 0.018207 0.018171 0.018171 0 0 1-0.018218-0.018207 0.018171 0.018171 0 0 1 0.018218-0.018207z"/>
  <path d="m0.58886 1.3057a0.24365 0.24365 0 0 0-0.24358 0.24358 0.24365 0.24365 0 0 0 0.24358 0.24358 0.24365 0.24365 0 0 0 0.24377-0.24358 0.24365 0.24365 0 0 0-0.24377-0.24358zm0 0.10442a0.13923 0.13923 0 0 1 0.13935 0.13916 0.13923 0.13923 0 0 1-0.13935 0.13916 0.13923 0.13923 0 0 1-0.13916-0.13916 0.13923 0.13923 0 0 1 0.13916-0.13916z"/>
  <path d="m0.58895 1.4275a0.12182 0.12182 0 0 0-0.12188 0.12169 0.12182 0.12182 0 0 0 0.12188 0.12188 0.12182 0.12182 0 0 0 0.12188-0.12188 0.12182 0.12182 0 0 0-0.12188-0.12169zm0 0.10348a0.018171 0.018171 0 0 1 0.018218 0.018207 0.018171 0.018171 0 0 1-0.018218 0.018207 0.018171 0.018171 0 0 1-0.018218-0.018207 0.018171 0.018171 0 0 1 0.018218-0.018207z"/>
  <path d="m1.1851 1.3057a0.24365 0.24365 0 0 0-0.24358 0.24358 0.24365 0.24365 0 0 0 0.24358 0.24358 0.24365 0.24365 0 0 0 0.24377-0.24358 0.24365 0.24365 0 0 0-0.24377-0.24358zm0 0.10442a0.13923 0.13923 0 0 1 0.13935 0.13916 0.13923 0.13923 0 0 1-0.13935 0.13916 0.13923 0.13923 0 0 1-0.13916-0.13916 0.13923 0.13923 0 0 1 0.13916-0.13916z"/>
  <path d="m1.1852 1.4275a0.12182 0.12182 0 0 0-0.12188 0.12169 0.12182 0.12182 0 0 0 0.12188 0.12188 0.12182 0.12182 0 0 0 0.12188-0.12188 0.12182 0.12182 0 0 0-0.12188-0.12169zm0 0.10348a0.018171 0.018171 0 0 1 0.018218 0.018207 0.018171 0.018171 0 0 1-0.018218 0.018207 0.018171 0.018171 0 0 1-0.018218-0.018207 0.018171 0.018171 0 0 1 0.018218-0.018207z"/>
 </g>
</svg>
