<?xml version="1.0" encoding="UTF-8"?>
<!-- Created with Inkscape (http://www.inkscape.org/) -->
<svg width="1.8212mm" height="2.2301mm" version="1.1" viewBox="0 0 1.8212 2.2301" xmlns="http://www.w3.org/2000/svg">
 <g transform="translate(-.020463 .02706)" fill="none">
  <rect x=".070463" y=".02294" width="1.7212" height="2.1301" ry="1.7764e-15"/>
  <g stroke-width=".1">
   <g stroke="#008000">
    <g transform="translate(-.45182)">
     <path d="m0.83021 0.97637"/>
     <path d="m1.0465 0.97637"/>
     <path d="m1.0155 0.28063v0.69574"/>
     <path d="m0.86741 0.97637v-0.69574"/>
     <path d="m0.76303 0.28063h0.35688"/>
     <path d="m1.1199 0.97637h-0.35688"/>
     <path d="m1.1199 0.6285h-0.35688"/>
    </g>
    <g transform="translate(-.45182 .91898)">
     <path d="m0.83021 0.97637"/>
     <path d="m1.0465 0.97637"/>
     <path d="m1.0155 0.28063v0.69574"/>
     <path d="m0.86741 0.97637v-0.69574"/>
     <path d="m0.76303 0.28063h0.35688"/>
     <path d="m1.1199 0.97637h-0.35688"/>
     <path d="m1.1199 0.6285h-0.35688"/>
    </g>
   </g>
   <g stroke="#008000">
    <g transform="translate(.43101)">
     <path d="m0.83021 0.97637"/>
     <path d="m1.0465 0.97637"/>
     <path d="m1.0155 0.28063v0.69574"/>
     <path d="m0.86741 0.97637v-0.69574"/>
     <path d="m0.76303 0.28063h0.35688"/>
     <path d="m1.1199 0.97637h-0.35688"/>
     <path d="m1.1199 0.6285h-0.35688"/>
    </g>
    <g transform="translate(.43101 .91898)">
     <path d="m0.83021 0.97637"/>
     <path d="m1.0465 0.97637"/>
     <path d="m1.0155 0.28063v0.69574"/>
     <path d="m0.86741 0.97637v-0.69574"/>
     <path d="m0.76303 0.28063h0.35688"/>
     <path d="m1.1199 0.97637h-0.35688"/>
     <path d="m1.1199 0.6285h-0.35688"/>
    </g>
   </g>
   <g transform="translate(-.010404 .45949)" stroke="#f00">
    <path d="m0.83021 0.97637"/>
    <path d="m1.0465 0.97637"/>
    <path d="m1.0155 0.28063v0.69574"/>
    <path d="m0.86741 0.97637v-0.69574"/>
    <path d="m0.76303 0.28063h0.35688"/>
    <path d="m1.1199 0.97637h-0.35688"/>
    <path d="m1.1199 0.6285h-0.35688"/>
   </g>
  </g>
 </g>
</svg>
