<?xml version="1.0" encoding="UTF-8"?>
<!-- Created with Inkscape (http://www.inkscape.org/) -->
<svg width="1.7741mm" height="2.183mm" version="1.1" viewBox="0 0 1.7741 2.183" xmlns="http://www.w3.org/2000/svg">
 <rect x=".026458" y=".026458" width="1.7212" height="2.1301" ry="1.7764e-15" fill="none"/>
 <g fill="#00f">
  <path d="m0.59825 0.26111a0.24599 0.24599 0 0 0-0.24592 0.24592 0.24599 0.24599 0 0 0 0.24592 0.24592 0.24599 0.24599 0 0 0 0.24611-0.24592 0.24599 0.24599 0 0 0-0.24611-0.24592zm0 0.10542a0.14057 0.14057 0 0 1 0.14069 0.1405 0.14057 0.14057 0 0 1-0.14069 0.1405 0.14057 0.14057 0 0 1-0.1405-0.1405 0.14057 0.14057 0 0 1 0.1405-0.1405z"/>
  <path d="m0.59834 0.38407a0.123 0.123 0 0 0-0.12305 0.12286 0.123 0.123 0 0 0 0.12305 0.12305 0.123 0.123 0 0 0 0.12305-0.12305 0.123 0.123 0 0 0-0.12305-0.12286zm0 0.10447a0.018346 0.018346 0 0 1 0.018393 0.018382 0.018346 0.018346 0 0 1-0.018393 0.018383 0.018346 0.018346 0 0 1-0.018393-0.018383 0.018346 0.018346 0 0 1 0.018393-0.018382z"/>
  <path d="m1.1757 0.26111a0.24599 0.24599 0 0 0-0.24592 0.24592 0.24599 0.24599 0 0 0 0.24592 0.24592 0.24599 0.24599 0 0 0 0.24611-0.24592 0.24599 0.24599 0 0 0-0.24611-0.24592zm0 0.10542a0.14057 0.14057 0 0 1 0.14069 0.1405 0.14057 0.14057 0 0 1-0.14069 0.1405 0.14057 0.14057 0 0 1-0.1405-0.1405 0.14057 0.14057 0 0 1 0.1405-0.1405z"/>
  <path d="m1.1758 0.38407a0.123 0.123 0 0 0-0.12305 0.12286 0.123 0.123 0 0 0 0.12305 0.12305 0.123 0.123 0 0 0 0.12306-0.12305 0.123 0.123 0 0 0-0.12306-0.12286zm0 0.10447a0.018346 0.018346 0 0 1 0.018393 0.018382 0.018346 0.018346 0 0 1-0.018393 0.018383 0.018346 0.018346 0 0 1-0.018393-0.018383 0.018346 0.018346 0 0 1 0.018393-0.018382z"/>
 </g>
 <g fill="#f00">
  <path d="m1.1757 0.88551a0.24599 0.24599 0 0 0-0.24592 0.24592 0.24599 0.24599 0 0 0 0.24592 0.24592 0.24599 0.24599 0 0 0 0.24611-0.24592 0.24599 0.24599 0 0 0-0.24611-0.24592zm0 0.10542a0.14057 0.14057 0 0 1 0.14069 0.1405 0.14057 0.14057 0 0 1-0.14069 0.1405 0.14057 0.14057 0 0 1-0.1405-0.1405 0.14057 0.14057 0 0 1 0.1405-0.1405z"/>
  <path d="m1.1758 1.0085a0.123 0.123 0 0 0-0.12305 0.12286 0.123 0.123 0 0 0 0.12305 0.12306 0.123 0.123 0 0 0 0.12306-0.12306 0.123 0.123 0 0 0-0.12306-0.12286zm0 0.10447a0.018346 0.018346 0 0 1 0.018393 0.018382 0.018346 0.018346 0 0 1-0.018393 0.018383 0.018346 0.018346 0 0 1-0.018393-0.018383 0.018346 0.018346 0 0 1 0.018393-0.018382z"/>
  <path d="m1.1757 1.4301a0.24599 0.24599 0 0 0-0.24592 0.24592 0.24599 0.24599 0 0 0 0.24592 0.24592 0.24599 0.24599 0 0 0 0.24611-0.24592 0.24599 0.24599 0 0 0-0.24611-0.24592zm0 0.10542a0.14057 0.14057 0 0 1 0.14069 0.1405 0.14057 0.14057 0 0 1-0.14069 0.1405 0.14057 0.14057 0 0 1-0.1405-0.1405 0.14057 0.14057 0 0 1 0.1405-0.1405z"/>
  <path d="m1.1758 1.5531a0.123 0.123 0 0 0-0.12305 0.12286 0.123 0.123 0 0 0 0.12305 0.12305 0.123 0.123 0 0 0 0.12306-0.12305 0.123 0.123 0 0 0-0.12306-0.12286zm0 0.10447a0.018346 0.018346 0 0 1 0.018393 0.018382 0.018346 0.018346 0 0 1-0.018393 0.018383 0.018346 0.018346 0 0 1-0.018393-0.018383 0.018346 0.018346 0 0 1 0.018393-0.018382z"/>
  <path d="m0.59825 0.88551a0.24599 0.24599 0 0 0-0.24592 0.24592 0.24599 0.24599 0 0 0 0.24592 0.24592 0.24599 0.24599 0 0 0 0.24611-0.24592 0.24599 0.24599 0 0 0-0.24611-0.24592zm0 0.10542a0.14057 0.14057 0 0 1 0.14069 0.1405 0.14057 0.14057 0 0 1-0.14069 0.1405 0.14057 0.14057 0 0 1-0.1405-0.1405 0.14057 0.14057 0 0 1 0.1405-0.1405z"/>
  <path d="m0.59834 1.0085a0.123 0.123 0 0 0-0.12305 0.12286 0.123 0.123 0 0 0 0.12305 0.12306 0.123 0.123 0 0 0 0.12305-0.12306 0.123 0.123 0 0 0-0.12305-0.12286zm0 0.10447a0.018346 0.018346 0 0 1 0.018393 0.018382 0.018346 0.018346 0 0 1-0.018393 0.018383 0.018346 0.018346 0 0 1-0.018393-0.018383 0.018346 0.018346 0 0 1 0.018393-0.018382z"/>
  <path d="m0.59825 1.4301a0.24599 0.24599 0 0 0-0.24592 0.24592 0.24599 0.24599 0 0 0 0.24592 0.24592 0.24599 0.24599 0 0 0 0.24611-0.24592 0.24599 0.24599 0 0 0-0.24611-0.24592zm0 0.10542a0.14057 0.14057 0 0 1 0.14069 0.1405 0.14057 0.14057 0 0 1-0.14069 0.1405 0.14057 0.14057 0 0 1-0.1405-0.1405 0.14057 0.14057 0 0 1 0.1405-0.1405z"/>
  <path d="m0.59834 1.5531a0.123 0.123 0 0 0-0.12305 0.12286 0.123 0.123 0 0 0 0.12305 0.12305 0.123 0.123 0 0 0 0.12305-0.12305 0.123 0.123 0 0 0-0.12305-0.12286zm0 0.10447a0.018346 0.018346 0 0 1 0.018393 0.018382 0.018346 0.018346 0 0 1-0.018393 0.018383 0.018346 0.018346 0 0 1-0.018393-0.018383 0.018346 0.018346 0 0 1 0.018393-0.018382z"/>
 </g>
</svg>
