<?xml version="1.0" encoding="UTF-8"?>
<!-- Created with Inkscape (http://www.inkscape.org/) -->
<svg width="1.7741mm" height="2.183mm" version="1.1" viewBox="0 0 1.7741 2.183" xmlns="http://www.w3.org/2000/svg">
 <rect x=".026458" y=".026458" width="1.7212" height="2.1301" ry="1.7764e-15" fill="none"/>
 <g fill="#00f">
  <path d="m0.48089 0.23367a0.20374 0.20374 0 0 0-0.20368 0.20368 0.20374 0.20374 0 0 0 0.20368 0.20368 0.20374 0.20374 0 0 0 0.20384-0.20368 0.20374 0.20374 0 0 0-0.20384-0.20368zm0 0.087315a0.11642 0.11642 0 0 1 0.11653 0.11637 0.11642 0.11642 0 0 1-0.11653 0.11637 0.11642 0.11642 0 0 1-0.11637-0.11637 0.11642 0.11642 0 0 1 0.11637-0.11637z"/>
  <path d="m0.48097 0.33551a0.10187 0.10187 0 0 0-0.10192 0.10176 0.10187 0.10187 0 0 0 0.10192 0.10192 0.10187 0.10187 0 0 0 0.10192-0.10192 0.10187 0.10187 0 0 0-0.10192-0.10176zm0 0.086531a0.015195 0.015195 0 0 1 0.015234 0.015225 0.015195 0.015195 0 0 1-0.015234 0.015226 0.015195 0.015195 0 0 1-0.015234-0.015226 0.015195 0.015195 0 0 1 0.015234-0.015225z"/>
  <path d="m0.88699 0.43554a0.20374 0.20374 0 0 0-0.20368 0.20368 0.20374 0.20374 0 0 0 0.20368 0.20368 0.20374 0.20374 0 0 0 0.20384-0.20368 0.20374 0.20374 0 0 0-0.20384-0.20368zm0 0.087315a0.11642 0.11642 0 0 1 0.11653 0.11637 0.11642 0.11642 0 0 1-0.11653 0.11637 0.11642 0.11642 0 0 1-0.11637-0.11637 0.11642 0.11642 0 0 1 0.11637-0.11637z"/>
  <path d="m0.88707 0.53738a0.10187 0.10187 0 0 0-0.10192 0.10176 0.10187 0.10187 0 0 0 0.10192 0.10192 0.10187 0.10187 0 0 0 0.10192-0.10192 0.10187 0.10187 0 0 0-0.10192-0.10176zm0 0.086531a0.015195 0.015195 0 0 1 0.015234 0.015225 0.015195 0.015195 0 0 1-0.015234 0.015226 0.015195 0.015195 0 0 1-0.015234-0.015226 0.015195 0.015195 0 0 1 0.015234-0.015225z"/>
  <path d="m1.2931 0.63741a0.20374 0.20374 0 0 0-0.20368 0.20368 0.20374 0.20374 0 0 0 0.20368 0.20368 0.20374 0.20374 0 0 0 0.20384-0.20368 0.20374 0.20374 0 0 0-0.20384-0.20368zm0 0.087315a0.11642 0.11642 0 0 1 0.11653 0.11637 0.11642 0.11642 0 0 1-0.11653 0.11637 0.11642 0.11642 0 0 1-0.11637-0.11637 0.11642 0.11642 0 0 1 0.11637-0.11637z"/>
  <path d="m1.2932 0.73925a0.10187 0.10187 0 0 0-0.10192 0.10176 0.10187 0.10187 0 0 0 0.10192 0.10192 0.10187 0.10187 0 0 0 0.10192-0.10192 0.10187 0.10187 0 0 0-0.10192-0.10176zm0 0.086531a0.015195 0.015195 0 0 1 0.015234 0.015225 0.015195 0.015195 0 0 1-0.015234 0.015226 0.015195 0.015195 0 0 1-0.015234-0.015226 0.015195 0.015195 0 0 1 0.015234-0.015225z"/>
 </g>
 <g fill="#f00">
  <path d="m0.63136 1.0538a0.20374 0.20374 0 0 0-0.20368 0.20368 0.20374 0.20374 0 0 0 0.20368 0.20368 0.20374 0.20374 0 0 0 0.20384-0.20368 0.20374 0.20374 0 0 0-0.20384-0.20368zm0 0.087315a0.11642 0.11642 0 0 1 0.11653 0.11637 0.11642 0.11642 0 0 1-0.11653 0.11637 0.11642 0.11642 0 0 1-0.11637-0.11637 0.11642 0.11642 0 0 1 0.11637-0.11637z"/>
  <path d="m0.63144 1.1556a0.10187 0.10187 0 0 0-0.10192 0.10176 0.10187 0.10187 0 0 0 0.10192 0.10192 0.10187 0.10187 0 0 0 0.10192-0.10192 0.10187 0.10187 0 0 0-0.10192-0.10176zm0 0.086531a0.015195 0.015195 0 0 1 0.015234 0.015225 0.015195 0.015195 0 0 1-0.015234 0.015225 0.015195 0.015195 0 0 1-0.015234-0.015225 0.015195 0.015195 0 0 1 0.015234-0.015225z"/>
  <path d="m1.1384 1.0538a0.20374 0.20374 0 0 0-0.20368 0.20368 0.20374 0.20374 0 0 0 0.20368 0.20368 0.20374 0.20374 0 0 0 0.20384-0.20368 0.20374 0.20374 0 0 0-0.20384-0.20368zm0 0.087315a0.11642 0.11642 0 0 1 0.11653 0.11637 0.11642 0.11642 0 0 1-0.11653 0.11637 0.11642 0.11642 0 0 1-0.11637-0.11637 0.11642 0.11642 0 0 1 0.11637-0.11637z"/>
  <path d="m1.1385 1.1556a0.10187 0.10187 0 0 0-0.10192 0.10176 0.10187 0.10187 0 0 0 0.10192 0.10192 0.10187 0.10187 0 0 0 0.10192-0.10192 0.10187 0.10187 0 0 0-0.10192-0.10176zm0 0.086531a0.015195 0.015195 0 0 1 0.015234 0.015225 0.015195 0.015195 0 0 1-0.015234 0.015225 0.015195 0.015195 0 0 1-0.015234-0.015225 0.015195 0.015195 0 0 1 0.015234-0.015225z"/>
  <path d="m0.63136 1.542a0.20374 0.20374 0 0 0-0.20368 0.20368 0.20374 0.20374 0 0 0 0.20368 0.20368 0.20374 0.20374 0 0 0 0.20384-0.20368 0.20374 0.20374 0 0 0-0.20384-0.20368zm0 0.087315a0.11642 0.11642 0 0 1 0.11653 0.11637 0.11642 0.11642 0 0 1-0.11653 0.11637 0.11642 0.11642 0 0 1-0.11637-0.11637 0.11642 0.11642 0 0 1 0.11637-0.11637z"/>
  <path d="m0.63144 1.6438a0.10187 0.10187 0 0 0-0.10192 0.10176 0.10187 0.10187 0 0 0 0.10192 0.10192 0.10187 0.10187 0 0 0 0.10192-0.10192 0.10187 0.10187 0 0 0-0.10192-0.10176zm0 0.086531a0.015195 0.015195 0 0 1 0.015234 0.015225 0.015195 0.015195 0 0 1-0.015234 0.015225 0.015195 0.015195 0 0 1-0.015234-0.015225 0.015195 0.015195 0 0 1 0.015234-0.015225z"/>
  <path d="m1.1384 1.542a0.20374 0.20374 0 0 0-0.20368 0.20368 0.20374 0.20374 0 0 0 0.20368 0.20368 0.20374 0.20374 0 0 0 0.20384-0.20368 0.20374 0.20374 0 0 0-0.20384-0.20368zm0 0.087315a0.11642 0.11642 0 0 1 0.11653 0.11637 0.11642 0.11642 0 0 1-0.11653 0.11637 0.11642 0.11642 0 0 1-0.11637-0.11637 0.11642 0.11642 0 0 1 0.11637-0.11637z"/>
  <path d="m1.1385 1.6438a0.10187 0.10187 0 0 0-0.10192 0.10176 0.10187 0.10187 0 0 0 0.10192 0.10192 0.10187 0.10187 0 0 0 0.10192-0.10192 0.10187 0.10187 0 0 0-0.10192-0.10176zm0 0.086531a0.015195 0.015195 0 0 1 0.015234 0.015225 0.015195 0.015195 0 0 1-0.015234 0.015225 0.015195 0.015195 0 0 1-0.015234-0.015225 0.015195 0.015195 0 0 1 0.015234-0.015225z"/>
 </g>
</svg>
