<?xml version="1.0" encoding="UTF-8"?>
<!-- Created with Inkscape (http://www.inkscape.org/) -->
<svg width="1.8212mm" height="2.2301mm" version="1.1" viewBox="0 0 1.8212 2.2301" xmlns="http://www.w3.org/2000/svg">
 <g transform="translate(-.021924 .035293)" fill="none">
  <rect x=".071924" y=".014707" width="1.7212" height="2.1301" ry="1.7764e-15"/>
  <g transform="translate(-.027767 .033444)" stroke="#008000" stroke-width=".1">
   <g transform="translate(.46024 -.049909)">
    <path d="m0.83021 0.97637"/>
    <path d="m1.0465 0.97637"/>
    <path d="m1.0155 0.28063v0.69574"/>
    <path d="m0.86741 0.97637v-0.69574"/>
    <path d="m0.76303 0.28063h0.35688"/>
    <path d="m1.1199 0.97637h-0.35688"/>
    <path d="m1.1199 0.6285h-0.35688"/>
   </g>
   <g transform="translate(-.42259 -.049909)">
    <path d="m0.83021 0.97637"/>
    <path d="m1.0465 0.97637"/>
    <path d="m1.0155 0.28063v0.69574"/>
    <path d="m0.86741 0.97637v-0.69574"/>
    <path d="m0.76303 0.28063h0.35688"/>
    <path d="m1.1199 0.97637h-0.35688"/>
    <path d="m1.1199 0.6285h-0.35688"/>
   </g>
   <g transform="translate(.46024 .88553)">
    <path d="m0.83021 0.97637"/>
    <path d="m1.0465 0.97637"/>
    <path d="m1.0155 0.28063v0.69574"/>
    <path d="m0.86741 0.97637v-0.69574"/>
    <path d="m0.76303 0.28063h0.35688"/>
    <path d="m1.1199 0.97637h-0.35688"/>
    <path d="m1.1199 0.6285h-0.35688"/>
   </g>
   <g transform="translate(-.42259 .88553)">
    <path d="m0.83021 0.97637"/>
    <path d="m1.0465 0.97637"/>
    <path d="m1.0155 0.28063v0.69574"/>
    <path d="m0.86741 0.97637v-0.69574"/>
    <path d="m0.76303 0.28063h0.35688"/>
    <path d="m1.1199 0.97637h-0.35688"/>
    <path d="m1.1199 0.6285h-0.35688"/>
   </g>
   <g transform="translate(0 -.0053107)">
    <g transform="rotate(46.988 .90523 .41746)">
     <path d="m0.83021 0.97637"/>
     <path d="m1.0465 0.97637"/>
     <path d="m1.0155 0.28063v0.69574"/>
     <path d="m0.86741 0.97637v-0.69574"/>
     <path d="m0.76303 0.28063h0.35688"/>
     <path d="m1.1199 0.97637h-0.35688"/>
     <path d="m1.1199 0.6285h-0.35688"/>
    </g>
    <g transform="matrix(.68215 -.73122 -.73122 -.68215 .97146 1.7051)">
     <path d="m0.83021 0.97637"/>
     <path d="m1.0465 0.97637"/>
     <path d="m1.0155 0.28063v0.69574"/>
     <path d="m0.86741 0.97637v-0.69574"/>
     <path d="m0.76303 0.28063h0.35688"/>
     <path d="m1.1199 0.97637h-0.35688"/>
     <path d="m1.1199 0.6285h-0.35688"/>
    </g>
   </g>
   <g transform="translate(0 .029735)">
    <g transform="rotate(46.988 .06803 1.299)">
     <path d="m0.83021 0.97637"/>
     <path d="m1.0465 0.97637"/>
     <path d="m1.0155 0.28063v0.69574"/>
     <path d="m0.86741 0.97637v-0.69574"/>
     <path d="m0.76303 0.28063h0.35688"/>
     <path d="m1.1199 0.97637h-0.35688"/>
     <path d="m1.1199 0.6285h-0.35688"/>
    </g>
    <g transform="matrix(.68215 -.73122 -.73122 -.68215 .59299 2.5974)">
     <path d="m0.83021 0.97637"/>
     <path d="m1.0465 0.97637"/>
     <path d="m1.0155 0.28063v0.69574"/>
     <path d="m0.86741 0.97637v-0.69574"/>
     <path d="m0.76303 0.28063h0.35688"/>
     <path d="m1.1199 0.97637h-0.35688"/>
     <path d="m1.1199 0.6285h-0.35688"/>
    </g>
   </g>
  </g>
 </g>
</svg>
