<?xml version="1.0" encoding="UTF-8"?>
<!-- Created with Inkscape (http://www.inkscape.org/) -->
<svg width="1.8212mm" height="2.2301mm" version="1.1" viewBox="0 0 1.8212 2.2301" xmlns="http://www.w3.org/2000/svg">
 <g transform="translate(-.021924 .035293)" fill="none">
  <rect x=".071924" y=".014707" width="1.7212" height="2.1301" ry="1.7764e-15"/>
  <g stroke-width=".1">
   <g transform="translate(-.44434)" stroke="#008000">
    <path d="m0.81688 1.9304"/>
    <path d="m1.0332 1.9304"/>
    <path d="m1.0022 1.4627v0.46772"/>
    <path d="m0.85409 1.9304v-0.46772"/>
    <path d="m0.7497 1.4627h0.35688"/>
    <path d="m1.1066 1.9304h-0.35688"/>
    <path d="m1.1066 1.6966h-0.35688"/>
   </g>
   <g transform="translate(-.44434 -.61388)" stroke="#008000">
    <path d="m0.81688 1.9304"/>
    <path d="m1.0332 1.9304"/>
    <path d="m1.0022 1.4627v0.46772"/>
    <path d="m0.85409 1.9304v-0.46772"/>
    <path d="m0.7497 1.4627h0.35688"/>
    <path d="m1.1066 1.9304h-0.35688"/>
    <path d="m1.1066 1.6966h-0.35688"/>
   </g>
   <g transform="translate(.45311)" stroke="#008000">
    <path d="m0.81688 1.9304"/>
    <path d="m1.0332 1.9304"/>
    <path d="m1.0022 1.4627v0.46772"/>
    <path d="m0.85409 1.9304v-0.46772"/>
    <path d="m0.7497 1.4627h0.35688"/>
    <path d="m1.1066 1.9304h-0.35688"/>
    <path d="m1.1066 1.6966h-0.35688"/>
    <g transform="translate(0 -.61388)">
     <path d="m0.81688 1.9304"/>
     <path d="m1.0332 1.9304"/>
     <path d="m1.0022 1.4627v0.46772"/>
     <path d="m0.85409 1.9304v-0.46772"/>
     <path d="m0.7497 1.4627h0.35688"/>
     <path d="m1.1066 1.9304h-0.35688"/>
     <path d="m1.1066 1.6966h-0.35688"/>
    </g>
   </g>
   <g stroke="#f00">
    <g transform="translate(.0043848)">
     <path d="m0.81688 1.9304"/>
     <path d="m1.0332 1.9304"/>
     <path d="m1.0022 1.4627v0.46772"/>
     <path d="m0.85409 1.9304v-0.46772"/>
     <path d="m0.7497 1.4627h0.35688"/>
     <path d="m1.1066 1.9304h-0.35688"/>
     <path d="m1.1066 1.6966h-0.35688"/>
    </g>
    <g transform="translate(.0043848 -.61388)">
     <path d="m0.81688 1.9304"/>
     <path d="m1.0332 1.9304"/>
     <path d="m1.0022 1.4627v0.46772"/>
     <path d="m0.85409 1.9304v-0.46772"/>
     <path d="m0.7497 1.4627h0.35688"/>
     <path d="m1.1066 1.9304h-0.35688"/>
     <path d="m1.1066 1.6966h-0.35688"/>
    </g>
    <g transform="translate(.0043848 -1.2336)">
     <path d="m0.81688 1.9304"/>
     <path d="m1.0332 1.9304"/>
     <path d="m1.0022 1.4627v0.46772"/>
     <path d="m0.85409 1.9304v-0.46772"/>
     <path d="m0.7497 1.4627h0.35688"/>
     <path d="m1.1066 1.9304h-0.35688"/>
     <path d="m1.1066 1.6966h-0.35688"/>
    </g>
   </g>
   <g transform="translate(-.44434 -1.2336)" stroke="#008000">
    <path d="m0.81688 1.9304"/>
    <path d="m1.0332 1.9304"/>
    <path d="m1.0022 1.4627v0.46772"/>
    <path d="m0.85409 1.9304v-0.46772"/>
    <path d="m0.7497 1.4627h0.35688"/>
    <path d="m1.1066 1.9304h-0.35688"/>
    <path d="m1.1066 1.6966h-0.35688"/>
   </g>
   <g transform="translate(.45311 -1.2336)" stroke="#008000">
    <path d="m0.81688 1.9304"/>
    <path d="m1.0332 1.9304"/>
    <path d="m1.0022 1.4627v0.46772"/>
    <path d="m0.85409 1.9304v-0.46772"/>
    <path d="m0.7497 1.4627h0.35688"/>
    <path d="m1.1066 1.9304h-0.35688"/>
    <path d="m1.1066 1.6966h-0.35688"/>
   </g>
  </g>
 </g>
</svg>
